<?xml version="1.0" standalone="no"?>
<!DOCTYPE svg PUBLIC "-//W3C//DTD SVG 20010904//EN"
 "http://www.w3.org/TR/2001/REC-SVG-20010904/DTD/svg10.dtd">
<svg version="1.0" xmlns="http://www.w3.org/2000/svg"
 width="500.000000pt" height="500.000000pt" viewBox="0 0 500.000000 500.000000"
 preserveAspectRatio="xMidYMid meet">

<g transform="translate(0.000000,500.000000) scale(0.100000,-0.100000)"
fill="#000000" stroke="none">
<path d="M2266 4990 c-333 -38 -585 -111 -872 -251 -242 -117 -457 -272 -655
-469 -395 -394 -628 -859 -715 -1430 -25 -160 -25 -520 0 -680 87 -571 320
-1036 715 -1430 383 -381 845 -615 1391 -701 208 -34 532 -34 740 0 537 85
1010 323 1383 693 402 400 635 863 723 1438 22 141 25 509 6 645 -83 583 -316
1058 -717 1461 -377 378 -852 619 -1390 705 -148 23 -480 33 -609 19z m544
-1670 l0 -270 -230 0 -230 0 0 270 0 270 230 0 230 0 0 -270z m700 0 l0 -270
115 0 115 0 0 270 0 270 230 0 230 0 0 -270 0 -270 -230 0 -230 0 0 -275 0
-275 -230 0 -230 0 0 275 0 275 -115 0 -115 0 0 270 0 270 230 0 230 0 0 -270z
m-1630 -545 l0 -275 -225 0 -225 0 0 275 0 275 225 0 225 0 0 -275z m-460
-550 l0 -275 -227 2 -228 3 -3 273 -2 272 230 0 230 0 0 -275z m928 3 l-3
-273 -227 -3 -228 -2 0 275 0 275 230 0 230 0 -2 -272z m922 -3 l0 -275 115 0
115 0 0 -270 0 -270 -230 0 -230 0 0 270 0 270 -115 0 -115 0 0 -270 0 -270
-230 0 -230 0 0 270 0 270 230 0 230 0 0 275 0 275 230 0 230 0 0 -275z
m-2310 -545 l0 -270 -230 0 -230 0 0 270 0 270 230 0 230 0 0 -270z m3240 0
l0 -270 -230 0 -230 0 0 270 0 270 230 0 230 0 0 -270z"/>
</g>
</svg>
